<svg width="283" height="387" viewBox="0 0 283 387" fill="none" xmlns="http://www.w3.org/2000/svg">
<path d="M213.768 72.0208C213.768 85.8008 208.886 107.301 193.711 122.481C188.372 127.814 183.742 131.015 180.042 133.405C172.908 138.022 167.75 141.234 170.626 148.939C173.451 156.514 182.266 154.17 190.596 152.283C193.287 151.642 245.623 139.118 246.274 139.089C260.339 136.43 273.919 145.322 277.216 159.077C277.23 159.134 281.414 176.617 281.451 176.771C284.766 190.526 276.711 204.623 262.982 208.651C262.396 208.915 205.203 222.663 205.107 222.693C194.247 225.459 187.883 230.843 187.883 241.323C187.883 246.005 190.596 251.086 193.938 255.31C193.938 255.31 256.075 332.326 256.399 332.918C264.854 344.455 262.692 360.545 251.703 369.457C251.667 369.495 237.703 380.813 237.568 380.915C226.599 389.834 210.414 388.654 200.856 378.007C200.367 377.589 161.779 330.153 157.683 325.122C153.58 320.099 148.435 312.445 141.284 312.445C134.146 312.445 129 320.099 124.894 325.122C120.804 330.153 82.2083 377.589 81.7243 378.007C72.1563 388.654 55.9763 389.834 45.0003 380.915C44.8777 380.813 30.9083 369.495 30.8723 369.457C19.883 360.545 17.7297 344.455 26.1777 332.918C26.4923 332.326 88.6377 255.31 88.6377 255.31C91.9657 251.086 94.687 246.005 94.687 241.323C94.687 230.843 88.3417 225.459 77.4683 222.693C77.3643 222.663 20.1803 208.915 19.5857 208.651C5.86968 204.623 -2.19034 190.526 1.11766 176.771C1.15633 176.617 5.35366 159.134 5.35899 159.077C8.65633 145.322 22.2297 136.43 36.295 139.089C36.9537 139.118 89.2843 151.642 91.9657 152.283C100.323 154.17 109.126 156.514 111.951 148.939C114.82 141.234 109.667 138.022 102.534 133.405C98.8257 131.015 94.203 127.814 88.8697 122.481C73.6897 107.301 68.8017 85.8008 68.8017 72.0208C68.8017 32.5034 101.76 0.454121 141.284 0.454121C180.807 0.454121 213.768 32.5034 213.768 72.0208Z" fill=""/>
</svg>
